# Made in Blockbench 4.9.4
mtllib stair.mtl

o plane
v 1 0 2.220446049250313e-16
v 1 0.5 0
v 0 0 2.220446049250313e-16
v 0 0.5 0
v 2.220446049250313e-16 0 1
v 1.0000000000000002 0 0.9999999999999998
v 0 0 0
v 1 0 -2.220446049250313e-16
v 2.220446049250313e-16 5.551115123125783e-17 1
v 4.440892098500626e-16 1 1
v 0 5.551115123125783e-17 -2.311115933264683e-33
v 2.220446049250313e-16 1 -3.928897086549961e-32
v 4.440892098500626e-16 0 0.9999999999999998
v 4.440892098500626e-16 0.5 1
v 1.0000000000000004 0 0.9999999999999993
v 1.0000000000000004 0.5 0.9999999999999996
v 1 0 0.9999999999999998
v 1.0000000000000004 0.5 0.9999999999999998
v 0.9999999999999999 0 -2.2204460492503128e-16
v 1.0000000000000002 0.5 -2.2204460492503136e-16
v 0.5 0.5 2.7755575615628914e-16
v 0.5 1 5.551115123125783e-17
v 0 0.5 2.7755575615628914e-16
v 0 1 5.551115123125783e-17
v 4.440892098500626e-16 0.5 0.9999999999999998
v 4.440892098500626e-16 1 1
v 0.5000000000000004 0.5 0.9999999999999994
v 0.5000000000000004 1 0.9999999999999997
v 0.5000000000000001 0.5 0.9999999999999999
v 0.5000000000000004 1 0.9999999999999999
v 0.4999999999999999 0.5 -1.1102230246251563e-16
v 0.5000000000000002 1 -1.110223024625157e-16
v 0.5000000000000004 0.9999999999999998 0.9999999999999999
v 4.440892098500626e-16 1.0000000000000002 1
v 0.5000000000000002 0.9999999999999998 -1.110223024625157e-16
v 2.220446049250313e-16 1.0000000000000002 -4.930380657631325e-32
v 1.0000000000000002 0.49999999999999967 0.9999999999999998
v 0.5000000000000003 0.5000000000000001 0.9999999999999999
v 1 0.49999999999999967 -2.220446049250313e-16
v 0.5000000000000001 0.5000000000000001 -1.1102230246251568e-16
vt 1 0.5
vt 0 0.5
vt 0 0
vt 1 0
vt 0 0
vt 1 0
vt 1 1
vt 0 1
vt 1 0
vt 1 1
vt 0 1
vt 0 0
vt 1 0.5
vt 0 0.5
vt 0 0
vt 1 0
vt 1 0.5
vt 0 0.5
vt 0 0
vt 1 0
vt 1 1
vt 0.5 1
vt 0.5 0.5
vt 1 0.5
vt 0.5 1
vt 0 1
vt 0 0.5
vt 0.5 0.5
vt 1 1
vt 0 1
vt 0 0.5
vt 1 0.5
vt 1 1
vt 0 1
vt 0 0.5
vt 1 0.5
vt 1 0.5
vt 0 0.5
vt 0 0
vt 1 0
vn 0 -4.440892098500626e-16 -1
vn 0 -1 0
vn -1 2.220446049250313e-16 2.220446049250313e-16
vn 4.440892098500626e-16 -4.440892098500626e-16 1
vn 1 -8.881784197001252e-16 -2.220446049250313e-16
vn 0 -4.440892098500626e-16 -1
vn 6.661338147750939e-16 -4.440892098500626e-16 1
vn 1 -6.661338147750939e-16 -2.220446049250313e-16
vn 8.881784197001252e-16 1 -1.9721522630525295e-31
vn 8.881784197001254e-16 1 -1.97215226305253e-31
usemtl none
f 4/1/1 2/2/1 1/3/1 3/4/1
f 8/5/2 6/6/2 5/7/2 7/8/2
f 9/9/3 10/10/3 12/11/3 11/12/3
f 16/13/4 14/14/4 13/15/4 15/16/4
f 20/17/5 18/18/5 17/19/5 19/20/5
f 24/21/6 22/22/6 21/23/6 23/24/6
f 28/25/7 26/26/7 25/27/7 27/28/7
f 32/29/8 30/30/8 29/31/8 31/32/8
f 36/33/9 34/34/9 33/35/9 35/36/9
f 40/37/10 38/38/10 37/39/10 39/40/10